<svg width="24" height="24" viewBox="0 0 24 24" xmlns="http://www.w3.org/2000/svg" fill="#166534">
    <!-- Tờ giấy (Meal Plan) -->
    <rect x="3" y="3" width="14" height="18"  stroke-width="1.5" fill="#166534"/>
    <line x1="5" y1="7" x2="15" y2="7" stroke="white" stroke-width="1"/>
    <line x1="5" y1="11" x2="15" y2="11" stroke="white" stroke-width="1"/>
    <line x1="5" y1="15" x2="15" y2="15" stroke="white" stroke-width="1"/>

    <ellipse class="cls-1" cx="17.73" cy="18.68" rx="4.77" ry="3.82" />

    <path class="cls-1" d="M20.11,11h1.43a0,0,0,0,1,0,0v1.43a2.39,2.39,0,0,1-2.39,2.39H17.73a0,0,0,0,1,0,0V13.43A2.39,2.39,0,0,1,20.11,11Z"/>

    <path class="cls-1" d="M14.86,11.05h0a2.86,2.86,0,0,1,2.87,2.86v.95"/>
</svg>


