<svg width="24" height="24" viewBox="0 0 24 24" xmlns="http://www.w3.org/2000/svg" fill="black">
    <!-- Tờ giấy (Meal Plan) -->
    <rect x="3" y="3" width="14" height="18" stroke="#808080" stroke-width="1.5" fill="none"/>
    <line x1="5" y1="7" x2="15" y2="7" stroke="#808080" stroke-width="1"/>
    <line x1="5" y1="11" x2="15" y2="11" stroke="#808080" stroke-width="1"/>
    <line x1="5" y1="15" x2="15" y2="15" stroke="#808080" stroke-width="1"/>

    <!-- Quả táo -->
    <ellipse cx="17.73" cy="18.68" rx="4.77" ry="3.82" stroke="#808080" stroke-width="1.5" fill="none"/>

    <path d="M20.11,11h1.43a0,0,0,0,1,0,0v1.43a2.39,2.39,0,0,1-2.39,2.39H17.73a0,0,0,0,1,0,0V13.43A2.39,2.39,0,0,1,20.11,11Z"
        stroke="#808080" stroke-width="1.5" fill="none"/>

    <path d="M14.86,11.05h0a2.86,2.86,0,0,1,2.87,2.86v.95" stroke="#808080" stroke-width="1.5" fill="none"/>
</svg>
